<svg width="600" height="160" viewBox="0 0 600 160" xmlns="http://www.w3.org/2000/svg">

  <!-- Background -->
  <rect x="0" y="0" width="600" height="160" rx="16" fill="#F7F6F3"/>

  <!-- Icon mark -->
  <rect x="28" y="28" width="90" height="104" rx="10" fill="#0F0F0F"/>

  <!-- K vertical stroke -->
  <line x1="52" y1="45" x2="52" y2="115" stroke="#ffffff" stroke-width="6" stroke-linecap="round"/>
  <!-- K upper arm -->
  <line x1="52" y1="80" x2="100" y2="45" stroke="#ffffff" stroke-width="6" stroke-linecap="round"/>
  <!-- K lower arm -->
  <line x1="52" y1="80" x2="100" y2="115" stroke="#ffffff" stroke-width="6" stroke-linecap="round"/>

  <!-- Node dots -->
  <circle cx="52"  cy="80"  r="3.5" fill="#3B8BD4"/>
  <circle cx="76"  cy="62"  r="3"   fill="#3B8BD4" opacity="0.75"/>
  <circle cx="100" cy="45"  r="3.5" fill="#3B8BD4"/>
  <circle cx="76"  cy="98"  r="3"   fill="#3B8BD4" opacity="0.75"/>
  <circle cx="100" cy="115" r="3.5" fill="#3B8BD4"/>

  <!-- Motion trails -->
  <line x1="100" y1="45"  x2="112" y2="35" stroke="#3B8BD4" stroke-width="1.5" stroke-linecap="round" opacity="0.45"/>
  <line x1="112" y1="35"  x2="120" y2="28" stroke="#3B8BD4" stroke-width="1"   stroke-linecap="round" opacity="0.22"/>
  <line x1="100" y1="115" x2="112" y2="125" stroke="#3B8BD4" stroke-width="1.5" stroke-linecap="round" opacity="0.45"/>
  <line x1="112" y1="125" x2="120" y2="132" stroke="#3B8BD4" stroke-width="1"   stroke-linecap="round" opacity="0.22"/>

  <!-- KYNETIC wordmark -->
  <text
    x="140" y="68"
    font-family="'Helvetica Neue', Helvetica, Arial, sans-serif"
    font-size="34"
    font-weight="500"
    letter-spacing="4"
    fill="#0F0F0F"
    dominant-baseline="central">KYNETIC</text>

  <!-- INTELLIGENCE sub-wordmark -->
  <text
    x="142" y="100"
    font-family="'Helvetica Neue', Helvetica, Arial, sans-serif"
    font-size="11"
    font-weight="400"
    letter-spacing="4"
    fill="#5F5E5A"
    dominant-baseline="central">INTELLIGENCE</text>

  <!-- Rule -->
  <line x1="140" y1="116" x2="572" y2="116" stroke="#D3D1C7" stroke-width="0.5"/>

  <!-- Tagline -->
  <text
    x="140" y="136"
    font-family="'Helvetica Neue', Helvetica, Arial, sans-serif"
    font-size="12"
    font-weight="500"
    letter-spacing="0.5"
    fill="#3B8BD4"
    dominant-baseline="central">One brain. Any robot.</text>

</svg>
